<?xml version="1.0" standalone="no"?>
<!DOCTYPE svg PUBLIC "-//W3C//DTD SVG 20010904//EN"
 "http://www.w3.org/TR/2001/REC-SVG-20010904/DTD/svg10.dtd">
<svg version="1.0" xmlns="http://www.w3.org/2000/svg"
 width="244.000000pt" height="268.000000pt" viewBox="0 0 244.000000 268.000000"
 preserveAspectRatio="xMidYMid meet">

<g transform="translate(0.000000,268.000000) scale(0.100000,-0.100000)"
fill="#000000" stroke="none">
<path d="M1045 2160 c-333 -38 -571 -222 -664 -515 -100 -311 -48 -691 124
-916 194 -251 614 -346 1010 -228 41 12 75 26 75 31 0 6 -7 35 -16 65 -18 62
-4 60 -139 24 -213 -57 -444 -41 -610 41 -202 100 -310 276 -334 546 -23 256
36 478 167 623 120 132 253 188 468 197 228 8 379 -44 507 -177 116 -120 166
-260 167 -461 0 -220 -35 -361 -99 -394 -65 -34 -146 -12 -175 48 -14 29 -16
79 -16 365 l0 331 -75 0 -75 0 0 -41 0 -42 -21 27 c-35 44 -95 69 -181 74
-185 11 -346 -98 -404 -275 -29 -89 -27 -264 5 -361 29 -90 81 -165 144 -209
62 -42 114 -56 207 -57 97 -1 177 35 223 100 l30 43 18 -37 c35 -69 130 -112
247 -112 36 0 82 5 103 12 84 25 152 111 184 235 25 92 38 311 25 414 -38 314
-243 552 -542 628 -88 23 -254 33 -353 21z m180 -551 c50 -14 107 -72 122
-125 34 -111 23 -285 -22 -374 -39 -77 -86 -103 -193 -107 -77 -4 -92 -1 -127
19 -81 47 -127 156 -128 303 -1 129 56 234 148 276 46 21 139 25 200 8z"/>
</g>
</svg>
