<?xml version="1.0" standalone="no"?>
<!DOCTYPE svg PUBLIC "-//W3C//DTD SVG 20010904//EN"
 "http://www.w3.org/TR/2001/REC-SVG-20010904/DTD/svg10.dtd">
<svg version="1.0" xmlns="http://www.w3.org/2000/svg"
 width="200.000000pt" height="200.000000pt" viewBox="0 0 200.000000 200.000000"
 preserveAspectRatio="xMidYMid meet">

<g transform="translate(0.000000,200.000000) scale(0.100000,-0.100000)"
fill="#000000" stroke="none">
<path d="M480 1690 l0 -30 520 0 520 0 0 30 0 30 -520 0 -520 0 0 -30z"/>
<path d="M380 1490 l0 -30 630 0 630 0 0 30 0 30 -630 0 -630 0 0 -30z"/>
<path d="M300 1290 l0 -30 700 0 700 0 0 30 0 30 -700 0 -700 0 0 -30z"/>
<path d="M300 1090 l0 -30 700 0 700 0 0 30 0 30 -700 0 -700 0 0 -30z"/>
<path d="M300 890 l0 -30 700 0 700 0 0 30 0 30 -700 0 -700 0 0 -30z"/>
<path d="M300 690 l0 -30 700 0 700 0 0 30 0 30 -700 0 -700 0 0 -30z"/>
<path d="M380 490 l0 -30 630 0 630 0 0 30 0 30 -630 0 -630 0 0 -30z"/>
<path d="M480 290 l0 -30 520 0 520 0 0 30 0 30 -520 0 -520 0 0 -30z"/>
</g>
</svg>
