<?xml version="1.0" encoding="UTF-8"?>
<svg width="700pt" height="700pt" version="1.1" viewBox="0 0 700 700" xmlns="http://www.w3.org/2000/svg" xmlns:xlink="http://www.w3.org/1999/xlink">
 <defs>
  <symbol id="i" overflow="visible">
   <path d="m29.312-1.75c-1.5117 0.78125-3.0898 1.3711-4.7344 1.7656-1.6367 0.40625-3.3398 0.60938-5.1094 0.60938-5.3125 0-9.5273-1.4844-12.641-4.4531-3.1055-2.9688-4.6562-7-4.6562-12.094s1.5508-9.125 4.6562-12.094c3.1133-2.9688 7.3281-4.4531 12.641-4.4531 1.7695 0 3.4727 0.19922 5.1094 0.59375 1.6445 0.39844 3.2227 0.99219 4.7344 1.7812v6.5938c-1.5312-1.0391-3.0391-1.8008-4.5156-2.2812-1.4805-0.48828-3.0391-0.73438-4.6719-0.73438-2.9375 0-5.2461 0.94531-6.9219 2.8281-1.6797 1.875-2.5156 4.4648-2.5156 7.7656 0 3.293 0.83594 5.8828 2.5156 7.7656 1.6758 1.875 3.9844 2.8125 6.9219 2.8125 1.6328 0 3.1914-0.23828 4.6719-0.71875 1.4766-0.48828 2.9844-1.2539 4.5156-2.2969z"/>
  </symbol>
  <symbol id="d" overflow="visible">
   <path d="m21.453-17.406c-0.67969-0.3125-1.3516-0.53906-2.0156-0.6875-0.65625-0.15625-1.3203-0.23438-1.9844-0.23438-1.9688 0-3.4844 0.63281-4.5469 1.8906-1.0547 1.2617-1.5781 3.0703-1.5781 5.4219v11.016h-7.6562v-23.922h7.6562v3.9219c0.97656-1.5625 2.1016-2.7031 3.375-3.4219 1.2812-0.71875 2.8125-1.0781 4.5938-1.0781 0.25 0 0.52344 0.011719 0.82812 0.03125 0.30078 0.023438 0.73438 0.070312 1.2969 0.14062z"/>
  </symbol>
  <symbol id="c" overflow="visible">
   <path d="m27.562-12.031v2.1875h-17.891c0.1875 1.793 0.83203 3.1367 1.9375 4.0312 1.1133 0.89844 2.6719 1.3438 4.6719 1.3438 1.6016 0 3.25-0.23438 4.9375-0.70312 1.6875-0.47656 3.4219-1.2031 5.2031-2.1719v5.8906c-1.8047 0.6875-3.6094 1.2031-5.4219 1.5469-1.8125 0.35156-3.6211 0.53125-5.4219 0.53125-4.3359 0-7.7031-1.0977-10.109-3.2969-2.3984-2.207-3.5938-5.2969-3.5938-9.2656 0-3.9062 1.1758-6.9727 3.5312-9.2031 2.3633-2.2383 5.6094-3.3594 9.7344-3.3594 3.7578 0 6.7695 1.1367 9.0312 3.4062 2.2578 2.2617 3.3906 5.2812 3.3906 9.0625zm-7.8594-2.5312c0-1.457-0.42969-2.6289-1.2812-3.5156-0.84375-0.89453-1.9492-1.3438-3.3125-1.3438-1.4922 0-2.6992 0.41797-3.625 1.25-0.91797 0.83594-1.4922 2.0391-1.7188 3.6094z"/>
  </symbol>
  <symbol id="a" overflow="visible">
   <path d="m14.391-10.766c-1.5938 0-2.793 0.27344-3.5938 0.8125-0.80469 0.54297-1.2031 1.3398-1.2031 2.3906 0 0.96875 0.32031 1.7305 0.96875 2.2812 0.64453 0.54297 1.5469 0.8125 2.7031 0.8125 1.4375 0 2.6445-0.51562 3.625-1.5469 0.98828-1.0312 1.4844-2.3203 1.4844-3.875v-0.875zm11.688-2.8906v13.656h-7.7031v-3.5469c-1.0312 1.4492-2.1875 2.5078-3.4688 3.1719s-2.8398 1-4.6719 1c-2.4805 0-4.4961-0.72266-6.0469-2.1719-1.543-1.4453-2.3125-3.3203-2.3125-5.625 0-2.8125 0.96094-4.8672 2.8906-6.1719 1.9375-1.3125 4.9688-1.9688 9.0938-1.9688h4.5156v-0.60938c0-1.207-0.48047-2.0938-1.4375-2.6562-0.94922-0.5625-2.4375-0.84375-4.4688-0.84375-1.6367 0-3.1562 0.16797-4.5625 0.5-1.4062 0.32422-2.7188 0.8125-3.9375 1.4688v-5.8281c1.6445-0.40625 3.2891-0.70703 4.9375-0.90625 1.6562-0.20703 3.3047-0.3125 4.9531-0.3125 4.3203 0 7.4375 0.85547 9.3438 2.5625 1.9141 1.6992 2.875 4.4609 2.875 8.2812z"/>
  </symbol>
  <symbol id="h" overflow="visible">
   <path d="m12.031-30.719v6.7969h7.875v5.4688h-7.875v10.141c0 1.1172 0.21875 1.8711 0.65625 2.2656 0.4375 0.38672 1.3125 0.57812 2.625 0.57812h3.9375v5.4688h-6.5625c-3.0234 0-5.1641-0.62891-6.4219-1.8906-1.2617-1.2578-1.8906-3.3984-1.8906-6.4219v-10.141h-3.7969v-5.4688h3.7969v-6.7969z"/>
  </symbol>
  <symbol id="b" overflow="visible">
   <path d="m19.953-20.422v-12.812h7.6875v33.234h-7.6875v-3.4531c-1.0547 1.4062-2.2148 2.4375-3.4844 3.0938-1.2734 0.65625-2.7422 0.98438-4.4062 0.98438-2.9492 0-5.3711-1.1719-7.2656-3.5156-1.8867-2.3438-2.8281-5.3594-2.8281-9.0469s0.94141-6.7031 2.8281-9.0469c1.8945-2.3438 4.3164-3.5156 7.2656-3.5156 1.6562 0 3.1172 0.33594 4.3906 1 1.2812 0.65625 2.4453 1.6836 3.5 3.0781zm-5.0469 15.484c1.6445 0 2.8945-0.59766 3.75-1.7969 0.86328-1.1953 1.2969-2.9297 1.2969-5.2031 0-2.2812-0.43359-4.0195-1.2969-5.2188-0.85547-1.1953-2.1055-1.7969-3.75-1.7969-1.625 0-2.8711 0.60156-3.7344 1.7969-0.85547 1.1992-1.2812 2.9375-1.2812 5.2188 0 2.2734 0.42578 4.0078 1.2812 5.2031 0.86328 1.1992 2.1094 1.7969 3.7344 1.7969z"/>
  </symbol>
  <symbol id="g" overflow="visible">
   <path d="m16.406-4.9375c1.6328 0 2.8828-0.59766 3.75-1.7969 0.86328-1.1953 1.2969-2.9297 1.2969-5.2031 0-2.2812-0.43359-4.0195-1.2969-5.2188-0.86719-1.1953-2.1172-1.7969-3.75-1.7969-1.6367 0-2.8906 0.60547-3.7656 1.8125-0.875 1.1992-1.3125 2.9336-1.3125 5.2031 0 2.2617 0.4375 3.9961 1.3125 5.2031 0.875 1.1992 2.1289 1.7969 3.7656 1.7969zm-5.0781-15.484c1.0508-1.3945 2.2188-2.4219 3.5-3.0781 1.2812-0.66406 2.7539-1 4.4219-1 2.9453 0 5.3672 1.1719 7.2656 3.5156 1.8945 2.3438 2.8438 5.3594 2.8438 9.0469s-0.94922 6.7031-2.8438 9.0469c-1.8984 2.3438-4.3203 3.5156-7.2656 3.5156-1.668 0-3.1406-0.33594-4.4219-1s-2.4492-1.6914-3.5-3.0781v3.4531h-7.6562v-33.234h7.6562z"/>
  </symbol>
  <symbol id="f" overflow="visible">
   <path d="m0.53125-23.922h7.6562l6.4219 16.234 5.4688-16.234h7.6562l-10.062 26.188c-1.0117 2.6641-2.1953 4.5234-3.5469 5.5781-1.3438 1.0625-3.1211 1.5938-5.3281 1.5938h-4.4219v-5.0156h2.3906c1.3008 0 2.2422-0.21094 2.8281-0.625 0.59375-0.40625 1.0547-1.1484 1.3906-2.2188l0.20312-0.65625z"/>
  </symbol>
  <symbol id="e" overflow="visible">
   <path d="m12.234-25.672v19.453h2.9531c3.3633 0 5.9297-0.83203 7.7031-2.5 1.7695-1.6641 2.6562-4.0859 2.6562-7.2656 0-3.1562-0.88672-5.5547-2.6562-7.2031-1.7617-1.6562-4.3281-2.4844-7.7031-2.4844zm-8.2188-6.2188h8.6719c4.8438 0 8.4453 0.34375 10.812 1.0312 2.375 0.6875 4.4102 1.8594 6.1094 3.5156 1.4883 1.4375 2.5977 3.1016 3.3281 4.9844 0.72656 1.875 1.0938 4 1.0938 6.375 0 2.4062-0.36719 4.5586-1.0938 6.4531-0.73047 1.8867-1.8398 3.5469-3.3281 4.9844-1.7109 1.6484-3.7617 2.8203-6.1562 3.5156-2.3984 0.6875-5.9844 1.0312-10.766 1.0312h-8.6719z"/>
  </symbol>
 </defs>
 <g>
  <path d="m105 17.5h17.5v17.5h-17.5z"/>
  <path d="m87.5 35h17.5v17.5h-17.5z"/>
  <path d="m122.5 35h17.5v17.5h-17.5z"/>
  <path d="m105 52.5h17.5v17.5h-17.5z"/>
  <path d="m262.5 26.25h17.5v17.5h-17.5z"/>
  <path d="m577.5 297.5h17.5v17.5h-17.5z"/>
  <path d="m560 315h17.5v17.5h-17.5z"/>
  <path d="m595 315h17.5v17.5h-17.5z"/>
  <path d="m577.5 332.5h17.5v17.5h-17.5z"/>
  <path d="m445.88 334.43c0.19141-0.71875 0.28516-1.4609 0.28125-2.2031 2.9648 0.17578 5.9219 0.26953 8.8359 0.26953 55.652 0.089844 107.22-29.199 135.65-77.039 28.43-47.844 29.504-107.14 2.8203-155.98-26.684-48.836-77.16-79.969-132.78-81.891-55.621-1.9219-108.12 25.652-138.11 72.531-8.25-1.7227-16.652-2.6016-25.078-2.625-42.961 0-79.93 21.641-96.172 52.5h-17.578c-5.4727 0.027344-10.805 1.7617-15.242 4.9648s-7.7617 7.7148-9.5117 12.902c-25.844 2.3438-48.871 17.285-61.547 39.93s-13.367 50.086-1.8516 73.344c11.516 23.254 33.758 39.336 59.453 42.984l-5.75 15.32c-0.84766 2.3359-0.64844 4.9219 0.55078 7.0977l-34.352 34.359c-6.0508 6.0625-8.7461 14.707-7.2109 23.133 1.5352 8.4258 7.1055 15.566 14.906 19.105 7.7969 3.5391 16.836 3.0273 24.191-1.3672l19.25-11.543v0.003906c1.1211 6.2773 4.6992 11.852 9.9414 15.484s11.719 5.0234 17.992 3.8672c6.2734-1.1523 11.824-4.7617 15.43-10.023v80.961c-5.5938 7.418-8.6641 16.438-8.75 25.727 0 6.9609 2.7656 13.641 7.6875 18.562s11.602 7.6875 18.562 7.6875h35c6.9609 0 13.641-2.7656 18.562-7.6875s7.6875-11.602 7.6875-18.562c-0.015625-4.1523-0.64453-8.2812-1.8633-12.25 0.74219-0.92578 1.2891-1.9961 1.6016-3.1406l9.0117-36.031 9.0117 36.051v-0.003906c0.3125 1.1484 0.85938 2.2188 1.6016 3.1406-1.2188 3.9648-1.8438 8.0859-1.8633 12.234 0 6.9609 2.7656 13.641 7.6875 18.562s11.602 7.6875 18.562 7.6875h35c6.9609 0 13.641-2.7656 18.562-7.6875s7.6875-11.602 7.6875-18.562c-0.085938-9.2891-3.1562-18.309-8.75-25.727v-86.449c2.3867 6.6875 7.6133 11.977 14.273 14.438 6.6602 2.4648 14.07 1.8477 20.234-1.6797 6.1602-3.5312 10.445-9.6094 11.691-16.598l19.25 11.551c7.3555 4.3945 16.398 4.9062 24.199 1.3672 7.8047-3.5391 13.375-10.68 14.914-19.105 1.5352-8.4297-1.1562-17.078-7.2109-23.145zm9.1172-299.43c38.535-0.15234 75.434 15.582 101.99 43.504 26.562 27.922 40.441 65.555 38.363 104.04-2.0742 38.484-19.922 74.406-49.332 99.309-29.41 24.898-67.785 36.578-106.08 32.277l-1.1914-3.1953c-12-31.996-32.484-60.129-59.254-81.375 0.62109-0.65625 1.1992-1.3398 1.8008-2.0117h29.953c6.9609 0 13.641-2.7656 18.562-7.6875s7.6875-11.602 7.6875-18.562v-35.043c0-6.9609-2.7656-13.641-7.6875-18.562s-11.602-7.6875-18.562-7.6875h-17.578c-11.734-20.977-30.742-36.93-53.438-44.844 26.18-37.543 68.996-59.988 114.77-60.156zm-286.38 292.75 5.8555-15.582v-0.003907c10.676-28.566 29.605-53.316 54.379-71.102 0.875 0.64844 1.75 1.3125 2.6953 1.9336l-19.391 103.41zm-9.1953-116.73c1.9453 4.8594 5.3047 9.0273 9.6406 11.965 4.332 2.9375 9.4453 4.5117 14.684 4.5195h29.953c0.55859 0.62109 1.0938 1.2617 1.6797 1.8711-12.566 9.4648-23.773 20.613-33.305 33.129h-15.828c-8.5508 0.015625-16.57-4.1445-21.48-11.141-4.9141-7-6.1016-15.953-3.1797-23.992 2.918-8.0352 9.5781-14.141 17.836-16.352zm88.262 40.984c12.98 5.7773 26.883 9.2109 41.062 10.133v70.367h17.5v-70.367c14.199-0.91406 28.125-4.3438 41.125-10.133l20.125 107.56v0.875l-31.359 7c-25.453 5.6172-51.828 5.6172-77.281 0l-31.359-6.9375zm152.7-94.5h10.867c2.3203 0 4.5469 0.92188 6.1875 2.5625s2.5625 3.8672 2.5625 6.1875v35c0 2.3203-0.92188 4.5469-2.5625 6.1875s-3.8672 2.5625-6.1875 2.5625h-17.578c5.7539-10.77 8.7852-22.789 8.8281-35 0-5.8984-0.71094-11.773-2.1172-17.5zm-17.543 188.9-1.6445-8.75-17.746-94.656c0.875-0.58594 1.6992-1.2148 2.5469-1.8203 25.551 19.488 45.086 45.785 56.367 75.871l4.0156 10.703zm-85.34-241.4c48.246 0 87.5 31.402 87.5 70s-39.254 70-87.5 70-87.5-31.402-87.5-70 39.254-70 87.5-70zm-122.5 61.25c0-4.832 3.918-8.75 8.75-8.75h10.867c-1.4062 5.7266-2.1172 11.602-2.1172 17.5 0.042969 12.211 3.0742 24.23 8.8281 35h-17.578c-4.832 0-8.75-3.918-8.75-8.75zm-70 70c0.015625-14.715 5.332-28.934 14.973-40.055 9.6406-11.117 22.961-18.395 37.527-20.496v17.676c-14.305 2.9062-26.219 12.75-31.762 26.254-5.5469 13.5-3.9922 28.879 4.1406 41 8.1328 12.121 21.773 19.387 36.371 19.371h4.2539c-3.2422 5.5859-6.1641 11.355-8.75 17.273-15.414-1.1367-29.828-8.0547-40.355-19.371-10.523-11.32-16.383-26.195-16.398-41.652zm91.43 161.8c-0.99609 3.0391-4.0586 4.9023-7.2148 4.3906-3.1562-0.50781-5.4766-3.2383-5.4648-6.4375v-11c0-3.1523-1.6992-6.0625-4.4414-7.6133-2.7461-1.5547-6.1133-1.5078-8.8164 0.11328l-32.113 19.25h0.003906c-3.7344 2.168-8.4922 1.2422-11.141-2.1641-2.6484-3.4023-2.375-8.2422 0.64062-11.328l37.773-37.773 42.281 18.121zm66.07 126.95h-35c-4.832 0-8.75-3.918-8.75-8.75 0.015625-2.9922 0.58203-5.957 1.6641-8.75h49c1.1367 2.7812 1.7578 5.7461 1.8359 8.75 0 2.3203-0.92188 4.5469-2.5625 6.1875s-3.8672 2.5625-6.1875 2.5625zm43.488-98.375c-0.97656-3.8945-4.4766-6.625-8.4883-6.625s-7.5117 2.7305-8.4883 6.625l-15.844 63.375h-45.668v-111.59l27.57 6.125c27.957 6.1758 56.922 6.1758 84.875 0l27.57-6.125v111.59h-45.684zm61.512 98.375h-35c-4.832 0-8.75-3.918-8.75-8.75 0.070312-3.0039 0.68359-5.9688 1.8125-8.75h49c1.0898 2.7891 1.6641 5.7539 1.6875 8.75 0 2.3203-0.92188 4.5469-2.5625 6.1875s-3.8672 2.5625-6.1875 2.5625zm102.47-129.5c-2.7891 2.7891-7.1172 3.3203-10.5 1.2969l-32.121-19.25c-2.6992-1.6367-6.0664-1.6914-8.8164-0.14844-2.75 1.543-4.457 4.4492-4.4688 7.6016v11c0 3.1875-2.3164 5.9023-5.4648 6.4102-3.1445 0.51172-6.1992-1.3398-7.2031-4.3633l-11.828-35.48 41.805-17.914 38.598 38.598c1.6328 1.6211 2.5508 3.8242 2.5508 6.125s-0.91797 4.5039-2.5508 6.125z"/>
  <path d="m323.75 271.25h17.5v17.5h-17.5z"/>
  <path d="m323.75 297.5h17.5v17.5h-17.5z"/>
  <path d="m271.25 227.5h52.5c11.598-0.015625 22.719-4.6289 30.922-12.828 8.1992-8.2031 12.812-19.324 12.828-30.922v-17.5c0-6.9609-2.7656-13.641-7.6875-18.562s-11.602-7.6875-18.562-7.6875h-87.5c-6.9609 0-13.641 2.7656-18.562 7.6875s-7.6875 11.602-7.6875 18.562v17.5c0.015625 11.598 4.6289 22.719 12.828 30.922 8.2031 8.1992 19.324 12.812 30.922 12.828zm-26.25-61.25c0-4.832 3.918-8.75 8.75-8.75h87.5c2.3203 0 4.5469 0.92188 6.1875 2.5625s2.5625 3.8672 2.5625 6.1875v17.5c0 6.9609-2.7656 13.641-7.6875 18.562s-11.602 7.6875-18.562 7.6875h-52.5c-6.9609 0-13.641-2.7656-18.562-7.6875s-7.6875-11.602-7.6875-18.562z"/>
  <path d="m516.25 490h17.5v17.5h-17.5z"/>
  <path d="m498.75 507.5h17.5v17.5h-17.5z"/>
  <path d="m533.75 507.5h17.5v17.5h-17.5z"/>
  <path d="m516.25 525h17.5v17.5h-17.5z"/>
  <path d="m455 113.75h17.5c9.2812 0 18.184-3.6875 24.75-10.25 6.5625-6.5664 10.25-15.469 10.25-24.75h-17.5c0 4.6406-1.8438 9.0938-5.125 12.375s-7.7344 5.125-12.375 5.125h-17.5c-4.6406 0-9.0938-1.8438-12.375-5.125s-5.125-7.7344-5.125-12.375h-17.5c0 9.2812 3.6875 18.184 10.25 24.75 6.5664 6.5625 15.469 10.25 24.75 10.25z"/>
  <path d="m551.25 210v-17.5c-4.6406 0-9.0938-1.8438-12.375-5.125s-5.125-7.7344-5.125-12.375v-8.75c0-4.6406 1.8438-9.0938 5.125-12.375s7.7344-5.125 12.375-5.125v-17.5c-9.2812 0-18.184 3.6875-24.75 10.25-6.5625 6.5664-10.25 15.469-10.25 24.75v8.75c0 9.2812 3.6875 18.184 10.25 24.75 6.5664 6.5625 15.469 10.25 24.75 10.25z"/>
  <path d="m490 227.5c-19.625 0-35 11.531-35 26.25s15.375 26.25 35 26.25 35-11.531 35-26.25-15.375-26.25-35-26.25zm0 35c-10.684 0-17.5-5.1797-17.5-8.75s6.8164-8.75 17.5-8.75 17.5 5.1797 17.5 8.75-6.8164 8.75-17.5 8.75z"/>
  <path d="m420 52.5h17.5v17.5h-17.5z"/>
  <use x="70" y="691.25" xlink:href="#i"/>
  <use x="102.109375" y="691.25" xlink:href="#d"/>
  <use x="123.683594" y="691.25" xlink:href="#c"/>
  <use x="153.355469" y="691.25" xlink:href="#a"/>
  <use x="182.878906" y="691.25" xlink:href="#h"/>
  <use x="203.792969" y="691.25" xlink:href="#c"/>
  <use x="233.464844" y="691.25" xlink:href="#b"/>
  <use x="280.011719" y="691.25" xlink:href="#g"/>
  <use x="311.328125" y="691.25" xlink:href="#f"/>
  <use x="355.078125" y="691.25" xlink:href="#b"/>
  <use x="386.398438" y="691.25" xlink:href="#e"/>
  <use x="422.714844" y="691.25" xlink:href="#a"/>
  <use x="452.234375" y="691.25" xlink:href="#d"/>
  <use x="473.8125" y="691.25" xlink:href="#a"/>
 </g>
</svg>
